<svg width="1920" height="1080" viewBox="0 0 1920 1080" fill="none" xmlns="http://www.w3.org/2000/svg">
<g clip-path="url(#clip0_154_708)">
<rect width="1920" height="1080" fill="black"/>
<rect x="0.5" y="0.5" width="108.434" height="107.679" stroke="#FCF9F4" stroke-opacity="0.1"/>
<rect x="109.153" y="0.5" width="108.434" height="107.679" stroke="#FCF9F4" stroke-opacity="0.1"/>
<rect x="0.5" y="108.403" width="108.434" height="107.679" stroke="#FCF9F4" stroke-opacity="0.1"/>
<rect x="109.152" y="108.403" width="108.434" height="107.679" stroke="#FCF9F4" stroke-opacity="0.1"/>
<rect x="0.5" y="217.082" width="108.434" height="107.679" stroke="#FCF9F4" stroke-opacity="0.1"/>
<rect x="109.152" y="217.082" width="108.434" height="107.679" stroke="#FCF9F4" stroke-opacity="0.1"/>
<rect x="0.5" y="324.985" width="108.434" height="107.679" stroke="#FCF9F4" stroke-opacity="0.1"/>
<rect x="109.152" y="324.985" width="108.434" height="107.679" stroke="#FCF9F4" stroke-opacity="0.1"/>
<rect x="0.5" y="433.664" width="108.434" height="107.679" stroke="#FCF9F4" stroke-opacity="0.1"/>
<rect x="109.152" y="433.664" width="108.434" height="107.679" stroke="#FCF9F4" stroke-opacity="0.1"/>
<rect x="0.5" y="541.567" width="108.434" height="107.679" stroke="#FCF9F4" stroke-opacity="0.1"/>
<rect x="109.152" y="541.567" width="108.434" height="107.679" stroke="#FCF9F4" stroke-opacity="0.1"/>
<rect x="0.5" y="650.246" width="108.434" height="107.679" stroke="#FCF9F4" stroke-opacity="0.1"/>
<rect x="109.152" y="650.246" width="108.434" height="107.679" stroke="#FCF9F4" stroke-opacity="0.1"/>
<rect x="0.5" y="758.149" width="108.434" height="107.679" stroke="#FCF9F4" stroke-opacity="0.1"/>
<rect x="109.152" y="758.149" width="108.434" height="107.679" stroke="#FCF9F4" stroke-opacity="0.1"/>
<rect x="0.5" y="866.828" width="108.434" height="107.679" stroke="#FCF9F4" stroke-opacity="0.1"/>
<rect x="109.152" y="866.828" width="108.434" height="107.679" stroke="#FCF9F4" stroke-opacity="0.1"/>
<rect x="0.5" y="974.731" width="108.434" height="107.679" stroke="#FCF9F4" stroke-opacity="0.1"/>
<rect x="109.152" y="974.731" width="108.434" height="107.679" stroke="#FCF9F4" stroke-opacity="0.1"/>
<rect x="217.587" y="0.5" width="108.434" height="107.679" stroke="#FCF9F4" stroke-opacity="0.1"/>
<rect x="326.239" y="0.5" width="108.434" height="107.679" stroke="#FCF9F4" stroke-opacity="0.1"/>
<rect x="217.587" y="108.403" width="108.434" height="107.679" stroke="#FCF9F4" stroke-opacity="0.1"/>
<rect x="326.239" y="108.403" width="108.434" height="107.679" stroke="#FCF9F4" stroke-opacity="0.1"/>
<rect x="217.587" y="217.082" width="108.434" height="107.679" stroke="#FCF9F4" stroke-opacity="0.1"/>
<rect x="326.239" y="217.082" width="108.434" height="107.679" stroke="#FCF9F4" stroke-opacity="0.1"/>
<rect x="217.587" y="324.985" width="108.434" height="107.679" stroke="#FCF9F4" stroke-opacity="0.1"/>
<rect x="326.239" y="324.985" width="108.434" height="107.679" stroke="#FCF9F4" stroke-opacity="0.1"/>
<rect x="217.587" y="433.664" width="108.434" height="107.679" stroke="#FCF9F4" stroke-opacity="0.1"/>
<rect x="326.239" y="433.664" width="108.434" height="107.679" stroke="#FCF9F4" stroke-opacity="0.1"/>
<rect x="217.587" y="541.567" width="108.434" height="107.679" stroke="#FCF9F4" stroke-opacity="0.1"/>
<rect x="326.239" y="541.567" width="108.434" height="107.679" stroke="#FCF9F4" stroke-opacity="0.1"/>
<rect x="217.587" y="650.246" width="108.434" height="107.679" stroke="#FCF9F4" stroke-opacity="0.1"/>
<rect x="326.239" y="650.246" width="108.434" height="107.679" stroke="#FCF9F4" stroke-opacity="0.1"/>
<rect x="217.587" y="758.149" width="108.434" height="107.679" stroke="#FCF9F4" stroke-opacity="0.1"/>
<rect x="326.239" y="758.149" width="108.434" height="107.679" stroke="#FCF9F4" stroke-opacity="0.1"/>
<rect x="217.587" y="866.828" width="108.434" height="107.679" stroke="#FCF9F4" stroke-opacity="0.1"/>
<rect x="326.239" y="866.828" width="108.434" height="107.679" stroke="#FCF9F4" stroke-opacity="0.1"/>
<rect x="217.587" y="974.731" width="108.434" height="107.679" stroke="#FCF9F4" stroke-opacity="0.1"/>
<rect x="326.239" y="974.731" width="108.434" height="107.679" stroke="#FCF9F4" stroke-opacity="0.1"/>
<rect x="434.673" y="0.5" width="108.434" height="107.679" stroke="#FCF9F4" stroke-opacity="0.1"/>
<rect x="543.326" y="0.5" width="108.434" height="107.679" stroke="#FCF9F4" stroke-opacity="0.1"/>
<rect x="434.673" y="108.403" width="108.434" height="107.679" stroke="#FCF9F4" stroke-opacity="0.1"/>
<rect x="543.325" y="108.403" width="108.434" height="107.679" stroke="#FCF9F4" stroke-opacity="0.1"/>
<rect x="434.673" y="217.082" width="108.434" height="107.679" stroke="#FCF9F4" stroke-opacity="0.1"/>
<rect x="543.325" y="217.082" width="108.434" height="107.679" stroke="#FCF9F4" stroke-opacity="0.1"/>
<rect x="434.673" y="324.985" width="108.434" height="107.679" stroke="#FCF9F4" stroke-opacity="0.1"/>
<rect x="543.325" y="324.985" width="108.434" height="107.679" stroke="#FCF9F4" stroke-opacity="0.1"/>
<rect x="434.673" y="433.664" width="108.434" height="107.679" stroke="#FCF9F4" stroke-opacity="0.1"/>
<rect x="543.325" y="433.664" width="108.434" height="107.679" stroke="#FCF9F4" stroke-opacity="0.1"/>
<rect x="434.673" y="541.567" width="108.434" height="107.679" stroke="#FCF9F4" stroke-opacity="0.1"/>
<rect x="543.325" y="541.567" width="108.434" height="107.679" stroke="#FCF9F4" stroke-opacity="0.1"/>
<rect x="434.673" y="650.246" width="108.434" height="107.679" stroke="#FCF9F4" stroke-opacity="0.1"/>
<rect x="543.325" y="650.246" width="108.434" height="107.679" stroke="#FCF9F4" stroke-opacity="0.1"/>
<rect x="434.673" y="758.149" width="108.434" height="107.679" stroke="#FCF9F4" stroke-opacity="0.1"/>
<rect x="543.325" y="758.149" width="108.434" height="107.679" stroke="#FCF9F4" stroke-opacity="0.1"/>
<rect x="434.673" y="866.828" width="108.434" height="107.679" stroke="#FCF9F4" stroke-opacity="0.1"/>
<rect x="543.325" y="866.828" width="108.434" height="107.679" stroke="#FCF9F4" stroke-opacity="0.1"/>
<rect x="434.673" y="974.731" width="108.434" height="107.679" stroke="#FCF9F4" stroke-opacity="0.1"/>
<rect x="543.325" y="974.731" width="108.434" height="107.679" stroke="#FCF9F4" stroke-opacity="0.1"/>
<rect x="651.76" y="0.5" width="108.434" height="107.679" stroke="#FCF9F4" stroke-opacity="0.1"/>
<rect x="760.412" y="0.5" width="108.434" height="107.679" stroke="#FCF9F4" stroke-opacity="0.1"/>
<rect x="651.76" y="108.403" width="108.434" height="107.679" stroke="#FCF9F4" stroke-opacity="0.1"/>
<rect x="760.412" y="108.403" width="108.434" height="107.679" stroke="#FCF9F4" stroke-opacity="0.1"/>
<rect x="651.76" y="217.082" width="108.434" height="107.679" stroke="#FCF9F4" stroke-opacity="0.1"/>
<rect x="760.412" y="217.082" width="108.434" height="107.679" stroke="#FCF9F4" stroke-opacity="0.1"/>
<rect x="651.76" y="324.985" width="108.434" height="107.679" stroke="#FCF9F4" stroke-opacity="0.1"/>
<rect x="760.412" y="324.985" width="108.434" height="107.679" stroke="#FCF9F4" stroke-opacity="0.1"/>
<rect x="651.76" y="433.664" width="108.434" height="107.679" stroke="#FCF9F4" stroke-opacity="0.1"/>
<rect x="760.412" y="433.664" width="108.434" height="107.679" stroke="#FCF9F4" stroke-opacity="0.1"/>
<rect x="651.76" y="541.567" width="108.434" height="107.679" stroke="#FCF9F4" stroke-opacity="0.1"/>
<rect x="760.412" y="541.567" width="108.434" height="107.679" stroke="#FCF9F4" stroke-opacity="0.1"/>
<rect x="651.76" y="650.246" width="108.434" height="107.679" stroke="#FCF9F4" stroke-opacity="0.1"/>
<rect x="760.412" y="650.246" width="108.434" height="107.679" stroke="#FCF9F4" stroke-opacity="0.1"/>
<rect x="651.76" y="758.149" width="108.434" height="107.679" stroke="#FCF9F4" stroke-opacity="0.1"/>
<rect x="760.412" y="758.149" width="108.434" height="107.679" stroke="#FCF9F4" stroke-opacity="0.1"/>
<rect x="651.76" y="866.828" width="108.434" height="107.679" stroke="#FCF9F4" stroke-opacity="0.1"/>
<rect x="760.412" y="866.828" width="108.434" height="107.679" stroke="#FCF9F4" stroke-opacity="0.1"/>
<rect x="651.76" y="974.731" width="108.434" height="107.679" stroke="#FCF9F4" stroke-opacity="0.1"/>
<rect x="760.412" y="974.731" width="108.434" height="107.679" stroke="#FCF9F4" stroke-opacity="0.1"/>
<rect x="868.846" y="0.5" width="108.434" height="107.679" stroke="#FCF9F4" stroke-opacity="0.1"/>
<rect x="977.499" y="0.5" width="108.434" height="107.679" stroke="#FCF9F4" stroke-opacity="0.1"/>
<rect x="868.846" y="108.403" width="108.434" height="107.679" stroke="#FCF9F4" stroke-opacity="0.1"/>
<rect x="977.499" y="108.403" width="108.434" height="107.679" stroke="#FCF9F4" stroke-opacity="0.1"/>
<rect x="868.846" y="217.082" width="108.434" height="107.679" stroke="#FCF9F4" stroke-opacity="0.1"/>
<rect x="977.499" y="217.082" width="108.434" height="107.679" stroke="#FCF9F4" stroke-opacity="0.1"/>
<rect x="868.846" y="324.985" width="108.434" height="107.679" stroke="#FCF9F4" stroke-opacity="0.1"/>
<rect x="977.499" y="324.985" width="108.434" height="107.679" stroke="#FCF9F4" stroke-opacity="0.1"/>
<rect x="868.846" y="433.664" width="108.434" height="107.679" stroke="#FCF9F4" stroke-opacity="0.1"/>
<rect x="977.499" y="433.664" width="108.434" height="107.679" stroke="#FCF9F4" stroke-opacity="0.1"/>
<rect x="868.846" y="541.567" width="108.434" height="107.679" stroke="#FCF9F4" stroke-opacity="0.1"/>
<rect x="977.499" y="541.567" width="108.434" height="107.679" stroke="#FCF9F4" stroke-opacity="0.1"/>
<rect x="868.846" y="650.246" width="108.434" height="107.679" stroke="#FCF9F4" stroke-opacity="0.1"/>
<rect x="977.499" y="650.246" width="108.434" height="107.679" stroke="#FCF9F4" stroke-opacity="0.1"/>
<rect x="868.846" y="758.149" width="108.434" height="107.679" stroke="#FCF9F4" stroke-opacity="0.1"/>
<rect x="977.499" y="758.149" width="108.434" height="107.679" stroke="#FCF9F4" stroke-opacity="0.1"/>
<rect x="868.846" y="866.828" width="108.434" height="107.679" stroke="#FCF9F4" stroke-opacity="0.1"/>
<rect x="977.499" y="866.828" width="108.434" height="107.679" stroke="#FCF9F4" stroke-opacity="0.1"/>
<rect x="868.846" y="974.731" width="108.434" height="107.679" stroke="#FCF9F4" stroke-opacity="0.1"/>
<rect x="977.499" y="974.731" width="108.434" height="107.679" stroke="#FCF9F4" stroke-opacity="0.1"/>
<path d="M1193.59 0.5V107.403H1193.59H1085.93V0.5H1193.59ZM1195.37 0.5H1303.02V107.403H1195.37V0.5ZM1085.93 109.179H1193.59V216.082H1085.93V109.179ZM1193.59 217.082V323.985H1085.93V217.082H1193.59ZM1085.93 432.664V325.761H1193.59V432.664H1085.93ZM1193.59 433.664V540.567H1085.93V433.664H1193.59ZM1085.93 649.246V542.343H1193.59V649.246H1085.93ZM1193.59 650.246V757.149H1085.93V650.246H1193.59ZM1085.93 865.828V758.925H1193.59V865.828H1085.93ZM1193.59 866.828V973.731H1085.93V866.828H1193.59ZM1193.59 1082.41H1085.93V975.507H1193.59V1082.41ZM1303.02 975.507V1082.41H1195.37V975.507H1303.02ZM1303.02 973.731H1195.37V866.828H1303.02V973.731ZM1303.02 865.828H1195.37V758.925H1303.02V865.828ZM1303.02 757.149H1195.37V650.246H1303.02V757.149ZM1303.02 649.246H1195.37V542.343H1303.02V649.246ZM1303.02 540.567H1195.37V433.664H1303.02V540.567ZM1303.02 432.664H1195.37V325.761H1303.02V432.664ZM1303.02 323.985H1195.37V217.082H1303.02V323.985ZM1303.02 216.082H1195.37V109.179H1303.02V216.082Z" stroke="url(#paint0_linear_154_708)" stroke-opacity="0.1"/>
<path d="M1086 758H1920" stroke="#424242" stroke-width="3" stroke-dasharray="40 40"/>
<path d="M1085 758L0 758" stroke="#424242" stroke-width="3" stroke-dasharray="40 40"/>
<path d="M1086 760.106V1083" stroke="#424242" stroke-width="3" stroke-dasharray="40 40"/>
<path d="M1086 0V760.106" stroke="#424242" stroke-width="3" stroke-dasharray="40 40"/>
<path d="M1654.55 1085.98C1695.12 900.939 1578.01 718.044 1392.98 677.468C1272.77 651.109 1153.47 691.297 1073.5 773.424C1030.37 817.717 998.685 874.209 984.469 939.039C973.645 988.399 974.042 1037.61 983.956 1084" stroke="#757575" stroke-width="2.5"/>
<path d="M760 432L1462 1129" stroke="url(#paint1_linear_154_708)" stroke-width="3"/>
<path d="M636.5 1090.5L1969 108.5" stroke="url(#paint2_linear_154_708)" stroke-width="3"/>
</g>
<defs>
<linearGradient id="paint0_linear_154_708" x1="1085" y1="609" x2="1747" y2="609" gradientUnits="userSpaceOnUse">
<stop stop-color="white"/>
<stop offset="1" stop-color="white" stop-opacity="0"/>
</linearGradient>
<linearGradient id="paint1_linear_154_708" x1="652" y1="202" x2="1601.5" y2="1170.5" gradientUnits="userSpaceOnUse">
<stop stop-opacity="0"/>
<stop offset="0.5" stop-color="#404040"/>
<stop offset="1" stop-color="#131313"/>
</linearGradient>
<linearGradient id="paint2_linear_154_708" x1="1969" y1="71.9998" x2="2.67841" y2="830.117" gradientUnits="userSpaceOnUse">
<stop stop-opacity="0"/>
<stop offset="0.5" stop-color="#404040"/>
<stop offset="1" stop-color="#131313"/>
</linearGradient>
<clipPath id="clip0_154_708">
<rect width="1920" height="1080" fill="white"/>
</clipPath>
</defs>
</svg>
