<svg width="201" height="72" viewBox="0 0 201 72" fill="none" xmlns="http://www.w3.org/2000/svg">
<g clip-path="url(#clip0_168_137)">
<g clip-path="url(#clip1_168_137)">
<g clip-path="url(#clip2_168_137)">
<g clip-path="url(#clip3_168_137)">
<g clip-path="url(#clip4_168_137)">
<g clip-path="url(#clip5_168_137)">
<path d="M199.54 47.2952H82.7276C82.0693 47.2952 81.5356 47.8284 81.5356 48.4862V49.0998C81.5356 49.7576 82.0693 50.2908 82.7276 50.2908H199.54C200.198 50.2908 200.732 49.7576 200.732 49.0998V48.4862C200.732 47.8284 200.198 47.2952 199.54 47.2952Z" fill="white"/>
<g clip-path="url(#clip6_168_137)">
<g clip-path="url(#clip7_168_137)">
<path d="M106.198 43.7663L103.81 36.989H89.9096L87.5213 43.7663H81.8372L93.7309 10.548H100.036L111.93 43.7663H106.198ZM91.4382 32.5503H102.281L96.8835 17.1344L91.4382 32.5503ZM140.828 43.7663H134.332L126.69 30.498H122.534V43.7663H117.089V10.5957H128.552C131.1 10.5957 133.256 11.0412 135.02 11.9321C136.791 12.823 138.112 14.0162 138.985 15.5116C139.864 17.0071 140.303 18.6776 140.303 20.523C140.303 22.6867 139.672 24.6498 138.411 26.4126C137.157 28.1817 135.224 29.3844 132.613 30.0208L140.828 43.7663ZM122.534 15.0344V26.1548H128.552C130.591 26.1548 132.125 25.6458 133.157 24.6276C134.195 23.6094 134.714 22.2412 134.714 20.523C134.714 18.8048 134.205 17.4589 133.186 16.4853C132.167 15.518 130.622 15.0344 128.552 15.0344H122.534ZM165.619 14.9866H152.722V24.723H164.186V29.1617H152.722V39.3276H165.619V43.7663H147.277V10.548H165.619V14.9866ZM194.699 43.7663L192.311 36.989H178.411L176.023 43.7663H170.338L182.232 10.548H188.537L200.431 43.7663H194.699ZM179.939 32.5503H190.782L185.385 17.1344L179.939 32.5503Z" fill="white"/>
</g>
</g>
<g clip-path="url(#clip8_168_137)">
<g clip-path="url(#clip9_168_137)">
<path d="M109.41 61.1291L108.872 59.6403H105.949L105.411 61.1291H104.488L106.911 54.4729H107.92L110.333 61.1291H109.41ZM106.199 58.9296H108.622L107.411 55.5486L106.199 58.9296ZM111.063 58.4877C111.063 57.9435 111.172 57.4677 111.39 57.0604C111.608 56.6545 111.911 56.3394 112.298 56.1153C112.686 55.8912 113.13 55.7792 113.63 55.7792C114.277 55.7792 114.81 55.936 115.23 56.2498C115.65 56.5636 115.927 56.999 116.062 57.5561H115.12C115.03 57.2359 114.855 56.983 114.595 56.7973C114.336 56.6116 114.014 56.5187 113.63 56.5187C113.13 56.5187 112.726 56.6897 112.419 57.0316C112.111 57.3748 111.957 57.8602 111.957 58.4877C111.957 59.1217 112.111 59.6115 112.419 59.9573C112.726 60.3031 113.13 60.476 113.63 60.476C114.014 60.476 114.335 60.3863 114.591 60.207C114.848 60.0277 115.024 59.7716 115.12 59.4386H116.062C115.921 59.9765 115.639 60.4068 115.216 60.7295C114.793 61.0535 114.264 61.2155 113.63 61.2155C113.13 61.2155 112.686 61.1035 112.298 60.8794C111.911 60.6552 111.608 60.3383 111.39 59.9285C111.172 59.5187 111.063 59.0384 111.063 58.4877ZM119.667 56.586H118.292V59.6884C118.292 59.9445 118.347 60.1257 118.456 60.232C118.564 60.337 118.754 60.3895 119.023 60.3895H119.667V61.1291H118.879C118.391 61.1291 118.026 61.017 117.783 60.7929C117.539 60.5688 117.417 60.2006 117.417 59.6884V56.586H116.735V55.8656H117.417V54.5401H118.292V55.8656H119.667V56.586ZM121.174 55.0108C121.007 55.0108 120.866 54.9531 120.751 54.8379C120.636 54.7226 120.578 54.5817 120.578 54.4153C120.578 54.2488 120.636 54.1079 120.751 53.9926C120.866 53.8774 121.007 53.8198 121.174 53.8198C121.334 53.8198 121.471 53.8774 121.584 53.9926C121.695 54.1079 121.751 54.2488 121.751 54.4153C121.751 54.5817 121.695 54.7226 121.584 54.8379C121.471 54.9531 121.334 55.0108 121.174 55.0108ZM120.722 55.8656H121.597V61.1291H120.722V55.8656ZM125.384 61.2155C124.891 61.2155 124.444 61.1035 124.044 60.8794C123.643 60.6552 123.329 60.3364 123.102 59.9227C122.874 59.5103 122.76 59.032 122.76 58.4877C122.76 57.9499 122.877 57.4741 123.112 57.0604C123.345 56.6481 123.664 56.3311 124.067 56.1096C124.471 55.8893 124.923 55.7792 125.423 55.7792C125.923 55.7792 126.375 55.8893 126.778 56.1096C127.182 56.3311 127.501 56.6468 127.736 57.0566C127.969 57.4664 128.086 57.9435 128.086 58.4877C128.086 59.032 127.966 59.5103 127.726 59.9227C127.485 60.3364 127.16 60.6552 126.749 60.8794C126.339 61.1035 125.884 61.2155 125.384 61.2155ZM125.384 60.4471C125.698 60.4471 125.993 60.3735 126.269 60.2262C126.544 60.0789 126.767 59.858 126.938 59.5635C127.107 59.2689 127.192 58.9104 127.192 58.4877C127.192 58.0651 127.108 57.7065 126.942 57.412C126.775 57.1174 126.557 56.8978 126.288 56.7531C126.019 56.6097 125.727 56.5379 125.413 56.5379C125.093 56.5379 124.8 56.6097 124.535 56.7531C124.268 56.8978 124.055 57.1174 123.894 57.412C123.734 57.7065 123.654 58.0651 123.654 58.4877C123.654 58.9168 123.733 59.2785 123.891 59.5731C124.047 59.8676 124.257 60.0873 124.519 60.232C124.782 60.3754 125.07 60.4471 125.384 60.4471ZM131.806 55.7695C132.447 55.7695 132.966 55.9629 133.363 56.3497C133.76 56.7377 133.959 57.2967 133.959 58.0267V61.1291H133.094V58.1516C133.094 57.6265 132.962 57.2244 132.7 56.9452C132.437 56.6673 132.078 56.5283 131.623 56.5283C131.162 56.5283 130.794 56.6724 130.521 56.9606C130.25 57.2487 130.114 57.6681 130.114 58.2188V61.1291H129.239V55.8656H130.114V56.6148C130.287 56.3458 130.522 56.1377 130.819 55.9905C131.118 55.8432 131.447 55.7695 131.806 55.7695ZM142.532 61.1291H141.484L139.888 58.3917H138.831V61.1291H137.956V54.4345H140.119C140.625 54.4345 141.053 54.5209 141.403 54.6938C141.752 54.8667 142.012 55.1004 142.185 55.395C142.359 55.6895 142.445 56.0257 142.445 56.4035C142.445 56.8645 142.312 57.2711 142.047 57.6233C141.78 57.9755 141.381 58.2092 140.849 58.3245L142.532 61.1291ZM138.831 55.1548V57.6905H140.119C140.593 57.6905 140.949 57.5733 141.186 57.339C141.423 57.1059 141.541 56.7941 141.541 56.4035C141.541 56.0065 141.425 55.6991 141.192 55.4814C140.957 55.2637 140.599 55.1548 140.119 55.1548H138.831ZM147.405 55.1452H144.675V57.3832H147.117V58.1035H144.675V60.4087H147.405V61.1291H143.8V54.4249H147.405V55.1452ZM153.23 61.1291L152.692 59.6403H149.77L149.232 61.1291H148.309L150.731 54.4729H151.741L154.153 61.1291H153.23ZM150.02 58.9296H152.442L151.231 55.5486L150.02 58.9296ZM154.884 58.4877C154.884 57.9435 154.993 57.4677 155.211 57.0604C155.429 56.6545 155.731 56.3394 156.118 56.1153C156.507 55.8912 156.951 55.7792 157.45 55.7792C158.098 55.7792 158.631 55.936 159.05 56.2498C159.47 56.5636 159.748 56.999 159.882 57.5561H158.94C158.851 57.2359 158.676 56.983 158.416 56.7973C158.157 56.6116 157.835 56.5187 157.45 56.5187C156.951 56.5187 156.547 56.6897 156.239 57.0316C155.932 57.3748 155.778 57.8602 155.778 58.4877C155.778 59.1217 155.932 59.6115 156.239 59.9573C156.547 60.3031 156.951 60.476 157.45 60.476C157.835 60.476 158.155 60.3863 158.412 60.207C158.668 60.0277 158.844 59.7716 158.94 59.4386H159.882C159.742 59.9765 159.46 60.4068 159.037 60.7295C158.614 61.0535 158.085 61.2155 157.45 61.2155C156.951 61.2155 156.507 61.1035 156.118 60.8794C155.731 60.6552 155.429 60.3383 155.211 59.9285C154.993 59.5187 154.884 59.0384 154.884 58.4877ZM163.485 56.586H162.111V59.6884C162.111 59.9445 162.165 60.1257 162.274 60.232C162.383 60.337 162.572 60.3895 162.841 60.3895H163.485V61.1291H162.697C162.21 61.1291 161.845 61.017 161.601 60.7929C161.358 60.5688 161.236 60.2006 161.236 59.6884V56.586H160.553V55.8656H161.236V54.5401H162.111V55.8656H163.485V56.586ZM164.995 55.0108C164.828 55.0108 164.687 54.9531 164.572 54.8379C164.456 54.7226 164.399 54.5817 164.399 54.4153C164.399 54.2488 164.456 54.1079 164.572 53.9926C164.687 53.8774 164.828 53.8198 164.995 53.8198C165.155 53.8198 165.291 53.8774 165.404 53.9926C165.516 54.1079 165.571 54.2488 165.571 54.4153C165.571 54.5817 165.516 54.7226 165.404 54.8379C165.291 54.9531 165.155 55.0108 164.995 55.0108ZM164.543 55.8656H165.417V61.1291H164.543V55.8656ZM169.205 61.2155C168.711 61.2155 168.264 61.1035 167.863 60.8794C167.463 60.6552 167.149 60.3364 166.921 59.9227C166.694 59.5103 166.581 59.032 166.581 58.4877C166.581 57.9499 166.697 57.4741 166.931 57.0604C167.165 56.6481 167.484 56.3311 167.888 56.1096C168.292 55.8893 168.743 55.7792 169.243 55.7792C169.743 55.7792 170.195 55.8893 170.599 56.1096C171.002 56.3311 171.321 56.6468 171.554 57.0566C171.789 57.4664 171.906 57.9435 171.906 58.4877C171.906 59.032 171.786 59.5103 171.545 59.9227C171.305 60.3364 170.98 60.6552 170.57 60.8794C170.16 61.1035 169.705 61.2155 169.205 61.2155ZM169.205 60.4471C169.519 60.4471 169.814 60.3735 170.089 60.2262C170.365 60.0789 170.587 59.858 170.756 59.5635C170.927 59.2689 171.012 58.9104 171.012 58.4877C171.012 58.0651 170.929 57.7065 170.762 57.412C170.596 57.1174 170.378 56.8978 170.108 56.7531C169.839 56.6097 169.548 56.5379 169.234 56.5379C168.913 56.5379 168.62 56.6097 168.353 56.7531C168.088 56.8978 167.875 57.1174 167.715 57.412C167.555 57.7065 167.475 58.0651 167.475 58.4877C167.475 58.9168 167.553 59.2785 167.709 59.5731C167.867 59.8676 168.077 60.0873 168.34 60.232C168.603 60.3754 168.891 60.4471 169.205 60.4471ZM175.626 55.7695C176.267 55.7695 176.786 55.9629 177.183 56.3497C177.581 56.7377 177.779 57.2967 177.779 58.0267V61.1291H176.914V58.1516C176.914 57.6265 176.783 57.2244 176.52 56.9452C176.257 56.6673 175.899 56.5283 175.444 56.5283C174.982 56.5283 174.615 56.6724 174.342 56.9606C174.07 57.2487 173.934 57.6681 173.934 58.2188V61.1291H173.06V55.8656H173.934V56.6148C174.107 56.3458 174.343 56.1377 174.64 55.9905C174.939 55.8432 175.267 55.7695 175.626 55.7695Z" fill="white"/>
</g>
</g>
</g>
</g>
<g clip-path="url(#clip10_168_137)">
<g clip-path="url(#clip11_168_137)">
<path d="M65.4002 -1.90735e-06C60.7962 -1.90735e-06 57.113 3.68018 57.113 8.2804C57.113 12.8806 60.7962 16.5608 65.4002 16.5608C70.0041 16.5608 73.6873 12.8806 73.6873 8.2804C73.6873 3.68018 70.0041 -1.90735e-06 65.4002 -1.90735e-06ZM65.4002 14.7207C61.8091 14.7207 58.9546 11.8686 58.9546 8.2804C58.9546 4.69223 61.8091 1.84009 65.4002 1.84009C68.9913 1.84009 71.8457 4.69223 71.8457 8.2804C71.8457 11.8686 68.9913 14.7207 65.4002 14.7207Z" fill="white"/>
<path d="M65.4001 27.6014C63.006 27.6014 60.8882 28.6134 59.3228 30.2695L43.5773 13.1566C44.5902 11.7766 45.1426 10.1205 45.1426 8.2804C45.1426 3.68018 41.4595 -1.90735e-06 36.8555 -1.90735e-06C32.2515 -1.90735e-06 28.5684 3.68018 28.5684 8.2804C28.5684 12.8806 32.2515 16.5608 36.8555 16.5608C38.9733 16.5608 40.8149 15.7328 42.2882 14.5367L58.2179 31.7416C57.5733 32.9376 57.1129 34.4097 57.1129 35.8818C57.1129 40.482 60.7961 44.1622 65.4001 44.1622C70.004 44.1622 73.6872 40.482 73.6872 35.8818C73.6872 31.2815 70.004 27.6014 65.4001 27.6014ZM36.8555 14.7207C33.2644 14.7207 30.4099 11.8686 30.4099 8.2804C30.4099 4.69223 33.2644 1.84009 36.8555 1.84009C40.4466 1.84009 43.301 4.69223 43.301 8.2804C43.301 11.8686 40.4466 14.7207 36.8555 14.7207ZM65.4001 42.3221C61.809 42.3221 58.9545 39.4699 58.9545 35.8818C58.9545 32.2936 61.809 29.4414 65.4001 29.4414C68.9912 29.4414 71.8456 32.2936 71.8456 35.8818C71.8456 39.4699 68.9912 42.3221 65.4001 42.3221Z" fill="white"/>
<path d="M36.8555 44.1622C41.4595 44.1622 45.1426 40.482 45.1426 35.8818C45.1426 31.2815 41.4595 27.6014 36.8555 27.6014C32.2515 27.6014 28.5684 31.2815 28.5684 35.8818C28.5684 40.482 32.2515 44.1622 36.8555 44.1622ZM36.8555 29.4414C40.4466 29.4414 43.301 32.2936 43.301 35.8818C43.301 39.4699 40.4466 42.3221 36.8555 42.3221C33.2644 42.3221 30.4099 39.4699 30.4099 35.8818C30.4099 32.2936 33.2644 29.4414 36.8555 29.4414Z" fill="white"/>
<path d="M8.31106 71.7635C12.915 71.7635 16.5982 68.0833 16.5982 63.4831C16.5982 58.8829 12.915 55.2027 8.31106 55.2027C3.7071 55.2027 0.0239258 58.8829 0.0239258 63.4831C0.0239258 68.0833 3.7071 71.7635 8.31106 71.7635ZM8.31106 57.0428C11.9022 57.0428 14.7566 59.8949 14.7566 63.4831C14.7566 67.0713 11.9022 69.9234 8.31106 69.9234C4.71997 69.9234 1.86551 67.0713 1.86551 63.4831C1.86551 59.8949 4.71997 57.0428 8.31106 57.0428Z" fill="white"/>
<path d="M65.4002 55.2027C61.1646 55.2027 57.6655 58.4229 57.2051 62.5631H45.0507C44.5903 58.4229 41.0913 55.2027 36.8556 55.2027C33.9091 55.2027 31.3309 56.7668 29.8576 59.0669L13.2833 42.5061C15.3091 41.034 16.5982 38.5499 16.5982 35.8818C16.5982 31.6496 13.3754 28.1534 9.23185 27.6934V16.4688C13.3754 16.0088 16.5982 12.5126 16.5982 8.28041C16.5982 3.68019 12.915 5.72205e-06 8.31106 5.72205e-06C3.7071 5.72205e-06 0.0239258 3.68019 0.0239258 8.28041C0.0239258 12.5126 3.2467 16.0088 7.39027 16.4688V27.6014C3.2467 28.0614 0.0239258 31.5576 0.0239258 35.7898C0.0239258 40.39 3.7071 44.0702 8.31106 44.0702C9.50809 44.0702 10.613 43.7942 11.6259 43.4261L29.0289 60.815C28.7527 61.643 28.5685 62.5631 28.5685 63.4831C28.5685 68.0833 32.2517 71.7635 36.8556 71.7635C41.0913 71.7635 44.5903 68.5434 45.0507 64.4032H57.1131C57.5735 68.5434 61.0725 71.7635 65.3081 71.7635C69.9121 71.7635 73.5953 68.0833 73.5953 63.4831C73.5953 58.8829 70.0042 55.2027 65.4002 55.2027ZM1.86551 8.28041C1.86551 4.69224 4.71997 1.8401 8.31106 1.8401C11.9022 1.8401 14.7566 4.69224 14.7566 8.28041C14.7566 11.8686 11.9022 14.7207 8.31106 14.7207C4.71997 14.7207 1.86551 11.8686 1.86551 8.28041ZM1.86551 35.8818C1.86551 32.2936 4.71997 29.4415 8.31106 29.4415C11.9022 29.4415 14.7566 32.2936 14.7566 35.8818C14.7566 39.4699 11.9022 42.3221 8.31106 42.3221C4.71997 42.3221 1.86551 39.4699 1.86551 35.8818ZM36.8556 69.9234C33.2645 69.9234 30.4101 67.0713 30.4101 63.4831C30.4101 59.8949 33.2645 57.0428 36.8556 57.0428C40.4467 57.0428 43.3012 59.8949 43.3012 63.4831C43.3012 67.0713 40.4467 69.9234 36.8556 69.9234ZM65.4002 69.9234C61.8091 69.9234 58.9547 67.0713 58.9547 63.4831C58.9547 59.8949 61.8091 57.0428 65.4002 57.0428C68.9913 57.0428 71.8457 59.8949 71.8457 63.4831C71.8457 67.0713 68.9913 69.9234 65.4002 69.9234Z" fill="white"/>
</g>
</g>
</g>
</g>
</g>
</g>
<defs>
<clipPath id="clip0_168_137">
<rect width="201" height="72" fill="white"/>
</clipPath>
<clipPath id="clip1_168_137">
<rect width="201" height="72" fill="white" transform="translate(-0.121826 -0.118238)"/>
</clipPath>
<clipPath id="clip2_168_137">
<rect width="200.708" height="71.7635" fill="white" transform="translate(0.0239258 -1.90735e-06)"/>
</clipPath>
<clipPath id="clip3_168_137">
<rect width="200.708" height="71.7635" fill="white" transform="translate(0.0239258 -1.90735e-06)"/>
</clipPath>
<clipPath id="clip4_168_137">
<rect width="119.196" height="50.6675" fill="white" transform="translate(81.5356 10.548)"/>
</clipPath>
<clipPath id="clip5_168_137">
<rect width="119.196" height="50.6675" fill="white" transform="translate(81.5356 10.548)"/>
</clipPath>
<clipPath id="clip6_168_137">
<rect width="118.603" height="33.2183" fill="white" transform="translate(81.8323 10.548)"/>
</clipPath>
<clipPath id="clip7_168_137">
<rect width="118.603" height="33.2183" fill="white" transform="translate(81.8323 10.548)"/>
</clipPath>
<clipPath id="clip8_168_137">
<rect width="73.2969" height="7.39578" fill="white" transform="translate(104.485 53.8198)"/>
</clipPath>
<clipPath id="clip9_168_137">
<rect width="73.2969" height="7.39578" fill="white" transform="translate(104.485 53.8198)"/>
</clipPath>
<clipPath id="clip10_168_137">
<rect width="73.6634" height="71.7635" fill="white" transform="translate(0.0239258 -1.90735e-06)"/>
</clipPath>
<clipPath id="clip11_168_137">
<rect width="73.6634" height="71.7635" fill="white" transform="translate(0.0239258 -1.90735e-06)"/>
</clipPath>
</defs>
</svg>
