<svg xmlns="http://www.w3.org/2000/svg" version="1.1" xmlns:xlink="http://www.w3.org/1999/xlink" xmlns:svgjs="http://svgjs.dev/svgjs" width="2000" height="717" viewBox="0 0 2000 717"><g transform="matrix(1,0,0,1,-1.2121212121212466,-1.1774538039899767)"><svg viewBox="0 0 396 142" data-background-color="#ffffff" preserveAspectRatio="xMidYMid meet" height="717" width="2000" xmlns="http://www.w3.org/2000/svg" xmlns:xlink="http://www.w3.org/1999/xlink"><g id="tight-bounds" transform="matrix(1,0,0,1,0.2400000000000091,0.23319168781949884)"><svg viewBox="0 0 395.52 141.53361662436103" height="141.53361662436103" width="395.52"><g><svg viewBox="0 0 669.3240747323075 239.51217887999996" height="141.53361662436103" width="395.52"><g transform="matrix(1,0,0,1,271.82647473230764,35.20411261271927)"><svg viewBox="0 0 397.4975999999999 169.10395365456142" height="169.10395365456142" width="397.4975999999999"><g id="textblocktransform"><svg viewBox="0 0 397.4975999999999 169.10395365456142" height="169.10395365456142" width="397.4975999999999" id="textblock"><g><rect width="397.4975999999999" height="9.998069930141538" x="0" y="122.64449236635683" fill="#000000" opacity="1" stroke-width="0" stroke="transparent" fill-opacity="1" class="rect-yte-0" data-fill-palette-color="primary" rx="1%" id="yte-0" data-palette-color="#1890ff"></rect></g><g transform="matrix(1,0,0,1,0.9887999999999693,0)"><svg viewBox="0 0 395.52 110.86666129681836" height="110.86666129681836" width="395.52"><g transform="matrix(1,0,0,1,0,0)"><svg width="395.52" viewBox="1.7 -34.8 124.14 34.8" height="110.86666129681836" data-palette-color="#1890ff"><path d="M27.2 0L24.7-7.1 10.15-7.1 7.65 0 1.7 0 14.15-34.8 20.75-34.8 33.2 0 27.2 0ZM11.75-11.75L23.1-11.75 17.45-27.9 11.75-11.75ZM63.45 0L56.65 0 48.65-13.9 44.3-13.9 44.3 0 38.6 0 38.6-34.75 50.6-34.75Q54.6-34.75 57.37-33.35 60.15-31.95 61.52-29.6 62.9-27.25 62.9-24.35L62.9-24.35Q62.9-20.95 60.92-18.18 58.95-15.4 54.85-14.4L54.85-14.4 63.45 0ZM44.3-30.1L44.3-18.45 50.6-18.45Q53.8-18.45 55.42-20.05 57.05-21.65 57.05-24.35L57.05-24.35Q57.05-27.05 55.45-28.58 53.85-30.1 50.6-30.1L50.6-30.1 44.3-30.1ZM89.4-30.15L75.9-30.15 75.9-19.95 87.9-19.95 87.9-15.3 75.9-15.3 75.9-4.65 89.4-4.65 89.4 0 70.2 0 70.2-34.8 89.4-34.8 89.4-30.15ZM119.84 0L117.34-7.1 102.79-7.1 100.29 0 94.34 0 106.79-34.8 113.39-34.8 125.84 0 119.84 0ZM104.39-11.75L115.74-11.75 110.09-27.9 104.39-11.75Z" opacity="1" transform="matrix(1,0,0,1,0,0)" fill="#000000" class="wordmark-text-0" data-fill-palette-color="primary" id="text-0"></path></svg></g></svg></g><g transform="matrix(1,0,0,1,76.53311999999995,144.42039336603682)"><svg viewBox="0 0 244.43136 24.683560288524596" height="24.683560288524596" width="244.43136"><g transform="matrix(1,0,0,1,0,0)"><svg width="244.43136" viewBox="1.65 -38.05 381.22 38.5" height="24.683560288524596" data-palette-color="#1890ff"><path d="M27.25 0L24.45-7.75 9.25-7.75 6.45 0 1.65 0 14.25-34.65 19.5-34.65 32.05 0 27.25 0ZM10.55-11.45L23.15-11.45 16.85-29.05 10.55-11.45ZM35.85-13.75Q35.85-18 37.55-21.18 39.25-24.35 42.27-26.1 45.3-27.85 49.2-27.85L49.2-27.85Q54.25-27.85 57.52-25.4 60.8-22.95 61.85-18.6L61.85-18.6 56.95-18.6Q56.25-21.1 54.22-22.55 52.2-24 49.2-24L49.2-24Q45.3-24 42.9-21.33 40.5-18.65 40.5-13.75L40.5-13.75Q40.5-8.8 42.9-6.1 45.3-3.4 49.2-3.4L49.2-3.4Q52.2-3.4 54.2-4.8 56.2-6.2 56.95-8.8L56.95-8.8 61.85-8.8Q60.75-4.6 57.45-2.08 54.15 0.45 49.2 0.45L49.2 0.45Q45.3 0.45 42.27-1.3 39.25-3.05 37.55-6.25 35.85-9.45 35.85-13.75L35.85-13.75ZM80.6-23.65L73.45-23.65 73.45-7.5Q73.45-5.5 74.3-4.67 75.15-3.85 77.25-3.85L77.25-3.85 80.6-3.85 80.6 0 76.5 0Q72.7 0 70.8-1.75 68.9-3.5 68.9-7.5L68.9-7.5 68.9-23.65 65.35-23.65 65.35-27.4 68.9-27.4 68.9-34.3 73.45-34.3 73.45-27.4 80.6-27.4 80.6-23.65ZM88.44-31.85Q87.14-31.85 86.24-32.75 85.34-33.65 85.34-34.95L85.34-34.95Q85.34-36.25 86.24-37.15 87.14-38.05 88.44-38.05L88.44-38.05Q89.69-38.05 90.57-37.15 91.44-36.25 91.44-34.95L91.44-34.95Q91.44-33.65 90.57-32.75 89.69-31.85 88.44-31.85L88.44-31.85ZM86.09-27.4L90.64-27.4 90.64 0 86.09 0 86.09-27.4ZM110.34 0.45Q106.49 0.45 103.37-1.3 100.24-3.05 98.47-6.28 96.69-9.5 96.69-13.75L96.69-13.75Q96.69-17.95 98.52-21.18 100.34-24.4 103.49-26.13 106.64-27.85 110.54-27.85L110.54-27.85Q114.44-27.85 117.59-26.13 120.74-24.4 122.57-21.2 124.39-18 124.39-13.75L124.39-13.75Q124.39-9.5 122.52-6.28 120.64-3.05 117.44-1.3 114.24 0.45 110.34 0.45L110.34 0.45ZM110.34-3.55Q112.79-3.55 114.94-4.7 117.09-5.85 118.42-8.15 119.74-10.45 119.74-13.75L119.74-13.75Q119.74-17.05 118.44-19.35 117.14-21.65 115.04-22.78 112.94-23.9 110.49-23.9L110.49-23.9Q107.99-23.9 105.92-22.78 103.84-21.65 102.59-19.35 101.34-17.05 101.34-13.75L101.34-13.75Q101.34-10.4 102.57-8.1 103.79-5.8 105.84-4.67 107.89-3.55 110.34-3.55L110.34-3.55ZM143.74-27.9Q148.74-27.9 151.84-24.88 154.94-21.85 154.94-16.15L154.94-16.15 154.94 0 150.44 0 150.44-15.5Q150.44-19.6 148.39-21.78 146.34-23.95 142.79-23.95L142.79-23.95Q139.19-23.95 137.06-21.7 134.94-19.45 134.94-15.15L134.94-15.15 134.94 0 130.39 0 130.39-27.4 134.94-27.4 134.94-23.5Q136.29-25.6 138.61-26.75 140.94-27.9 143.74-27.9L143.74-27.9ZM199.53 0L194.08 0 185.78-14.25 180.28-14.25 180.28 0 175.73 0 175.73-34.85 186.98-34.85Q190.93-34.85 193.66-33.5 196.38-32.15 197.73-29.85 199.08-27.55 199.08-24.6L199.08-24.6Q199.08-21 197.01-18.25 194.93-15.5 190.78-14.6L190.78-14.6 199.53 0ZM180.28-31.1L180.28-17.9 186.98-17.9Q190.68-17.9 192.53-19.73 194.38-21.55 194.38-24.6L194.38-24.6Q194.38-27.7 192.56-29.4 190.73-31.1 186.98-31.1L186.98-31.1 180.28-31.1ZM224.88-31.15L210.68-31.15 210.68-19.5 223.38-19.5 223.38-15.75 210.68-15.75 210.68-3.75 224.88-3.75 224.88 0 206.13 0 206.13-34.9 224.88-34.9 224.88-31.15ZM255.18 0L252.38-7.75 237.18-7.75 234.38 0 229.58 0 242.18-34.65 247.43-34.65 259.98 0 255.18 0ZM238.48-11.45L251.08-11.45 244.78-29.05 238.48-11.45ZM263.78-13.75Q263.78-18 265.48-21.18 267.18-24.35 270.2-26.1 273.23-27.85 277.13-27.85L277.13-27.85Q282.18-27.85 285.45-25.4 288.73-22.95 289.78-18.6L289.78-18.6 284.88-18.6Q284.18-21.1 282.15-22.55 280.13-24 277.13-24L277.13-24Q273.23-24 270.83-21.33 268.43-18.65 268.43-13.75L268.43-13.75Q268.43-8.8 270.83-6.1 273.23-3.4 277.13-3.4L277.13-3.4Q280.13-3.4 282.13-4.8 284.13-6.2 284.88-8.8L284.88-8.8 289.78-8.8Q288.68-4.6 285.38-2.08 282.08 0.45 277.13 0.45L277.13 0.45Q273.23 0.45 270.2-1.3 267.18-3.05 265.48-6.25 263.78-9.45 263.78-13.75L263.78-13.75ZM308.52-23.65L301.37-23.65 301.37-7.5Q301.37-5.5 302.22-4.67 303.07-3.85 305.17-3.85L305.17-3.85 308.52-3.85 308.52 0 304.42 0Q300.62 0 298.72-1.75 296.82-3.5 296.82-7.5L296.82-7.5 296.82-23.65 293.27-23.65 293.27-27.4 296.82-27.4 296.82-34.3 301.37-34.3 301.37-27.4 308.52-27.4 308.52-23.65ZM316.37-31.85Q315.07-31.85 314.17-32.75 313.27-33.65 313.27-34.95L313.27-34.95Q313.27-36.25 314.17-37.15 315.07-38.05 316.37-38.05L316.37-38.05Q317.62-38.05 318.5-37.15 319.37-36.25 319.37-34.95L319.37-34.95Q319.37-33.65 318.5-32.75 317.62-31.85 316.37-31.85L316.37-31.85ZM314.02-27.4L318.57-27.4 318.57 0 314.02 0 314.02-27.4ZM338.27 0.45Q334.42 0.45 331.29-1.3 328.17-3.05 326.39-6.28 324.62-9.5 324.62-13.75L324.62-13.75Q324.62-17.95 326.44-21.18 328.27-24.4 331.42-26.13 334.57-27.85 338.47-27.85L338.47-27.85Q342.37-27.85 345.52-26.13 348.67-24.4 350.49-21.2 352.32-18 352.32-13.75L352.32-13.75Q352.32-9.5 350.44-6.28 348.57-3.05 345.37-1.3 342.17 0.45 338.27 0.45L338.27 0.45ZM338.27-3.55Q340.72-3.55 342.87-4.7 345.02-5.85 346.34-8.15 347.67-10.45 347.67-13.75L347.67-13.75Q347.67-17.05 346.37-19.35 345.07-21.65 342.97-22.78 340.87-23.9 338.42-23.9L338.42-23.9Q335.92-23.9 333.84-22.78 331.77-21.65 330.52-19.35 329.27-17.05 329.27-13.75L329.27-13.75Q329.27-10.4 330.49-8.1 331.72-5.8 333.77-4.67 335.82-3.55 338.27-3.55L338.27-3.55ZM371.67-27.9Q376.67-27.9 379.77-24.88 382.87-21.85 382.87-16.15L382.87-16.15 382.87 0 378.37 0 378.37-15.5Q378.37-19.6 376.32-21.78 374.27-23.95 370.72-23.95L370.72-23.95Q367.12-23.95 364.99-21.7 362.87-19.45 362.87-15.15L362.87-15.15 362.87 0 358.32 0 358.32-27.4 362.87-27.4 362.87-23.5Q364.22-25.6 366.54-26.75 368.87-27.9 371.67-27.9L371.67-27.9Z" opacity="1" transform="matrix(1,0,0,1,0,0)" fill="#000000" class="slogan-text-1" data-fill-palette-color="secondary" id="text-1"></path></svg></g></svg></g></svg></g></svg></g><g><svg viewBox="0 0 245.65351679999995 239.51217887999996" height="239.51217887999996" width="245.65351679999995"><g><svg xmlns="http://www.w3.org/2000/svg" xmlns:xlink="http://www.w3.org/1999/xlink" version="1.1" x="0" y="0" viewBox="10 11 80 78" style="enable-background:new 0 0 100 100;" xml:space="preserve" height="239.51217887999996" width="245.65351679999995" class="icon-icon-0" data-fill-palette-color="accent" id="icon-0"><g fill="#1890ff" data-fill-palette-color="accent"><path d="M81 11C76 11 72 15 72 20S76 29 81 29 90 25 90 20 86 11 81 11M81 27C77.1 27 74 23.9 74 20S77.1 13 81 13 88 16.1 88 20 84.9 27 81 27" fill="#000000" data-fill-palette-color="accent"></path><path d="M81 41C78.4 41 76.1 42.1 74.4 43.9L57.3 25.3C58.4 23.8 59 22 59 20 59 15 55 11 50 11S41 15 41 20 45 29 50 29C52.3 29 54.3 28.1 55.9 26.8L73.2 45.5C72.5 46.8 72 48.4 72 50 72 55 76 59 81 59S90 55 90 50 86 41 81 41M50 27C46.1 27 43 23.9 43 20S46.1 13 50 13 57 16.1 57 20 53.9 27 50 27M81 57C77.1 57 74 53.9 74 50S77.1 43 81 43 88 46.1 88 50 84.9 57 81 57" fill="#000000" data-fill-palette-color="accent"></path><path d="M50 59C55 59 59 55 59 50S55 41 50 41 41 45 41 50 45 59 50 59M50 43C53.9 43 57 46.1 57 50S53.9 57 50 57 43 53.9 43 50 46.1 43 50 43" fill="#000000" data-fill-palette-color="accent"></path><path d="M19 89C24 89 28 85 28 80S24 71 19 71 10 75 10 80 14 89 19 89M19 73C22.9 73 26 76.1 26 80S22.9 87 19 87 12 83.9 12 80 15.1 73 19 73" fill="#000000" data-fill-palette-color="accent"></path><path d="M81 71C76.4 71 72.6 74.5 72.1 79H58.9C58.4 74.5 54.6 71 50 71 46.8 71 44 72.7 42.4 75.2L24.4 57.2C26.6 55.6 28 52.9 28 50 28 45.4 24.5 41.6 20 41.1V28.9C24.5 28.4 28 24.6 28 20 28 15 24 11 19 11S10 15 10 20C10 24.6 13.5 28.4 18 28.9V41C13.5 41.5 10 45.3 10 49.9 10 54.9 14 58.9 19 58.9 20.3 58.9 21.5 58.6 22.6 58.2L41.5 77.1C41.2 78 41 79 41 80 41 85 45 89 50 89 54.6 89 58.4 85.5 58.9 81H72C72.5 85.5 76.3 89 80.9 89 85.9 89 89.9 85 89.9 80S86 71 81 71M12 20C12 16.1 15.1 13 19 13S26 16.1 26 20 22.9 27 19 27 12 23.9 12 20M12 50C12 46.1 15.1 43 19 43S26 46.1 26 50 22.9 57 19 57 12 53.9 12 50M50 87C46.1 87 43 83.9 43 80S46.1 73 50 73 57 76.1 57 80 53.9 87 50 87M81 87C77.1 87 74 83.9 74 80S77.1 73 81 73 88 76.1 88 80 84.9 87 81 87" fill="#000000" data-fill-palette-color="accent"></path></g></svg></g></svg></g></svg></g><defs></defs></svg><rect width="395.52" height="141.53361662436103" fill="none" stroke="none" visibility="hidden"></rect></g></svg></g></svg>