<svg width="274" height="98" viewBox="0 0 274 98" fill="none" xmlns="http://www.w3.org/2000/svg">
<g clip-path="url(#clip0_153_533)">
<g clip-path="url(#clip1_153_533)">
<g clip-path="url(#clip2_153_533)">
<g clip-path="url(#clip3_153_533)">
<g clip-path="url(#clip4_153_533)">
<g clip-path="url(#clip5_153_533)">
<path d="M272.01 64.3739H112.773C111.876 64.3739 111.148 65.0997 111.148 65.995V66.8302C111.148 67.7255 111.876 68.4513 112.773 68.4513H272.01C272.908 68.4513 273.635 67.7255 273.635 66.8302V65.995C273.635 65.0997 272.908 64.3739 272.01 64.3739Z" fill="white"/>
<g clip-path="url(#clip6_153_533)">
<g clip-path="url(#clip7_153_533)">
<path d="M144.767 59.5707L141.512 50.346H122.563L119.308 59.5707H111.559L127.773 14.3569H136.368L152.581 59.5707H144.767ZM124.647 44.3046H139.428L132.07 23.3217L124.647 44.3046ZM191.975 59.5707H183.12L172.701 41.5112H167.036V59.5707H159.613V14.4219H175.241C178.714 14.4219 181.652 15.0282 184.057 16.2408C186.471 17.4535 188.272 19.0775 189.462 21.113C190.66 23.1485 191.259 25.4222 191.259 27.9341C191.259 30.879 190.399 33.5511 188.68 35.9504C186.97 38.3583 184.335 39.9954 180.775 40.8616L191.975 59.5707ZM167.036 20.4634V35.5996H175.241C178.019 35.5996 180.111 34.9067 181.518 33.5208C182.933 32.135 183.641 30.2727 183.641 27.9341C183.641 25.5954 182.946 23.7635 181.557 22.4382C180.168 21.1217 178.062 20.4634 175.241 20.4634H167.036ZM225.769 20.3984H208.189V33.6507H223.816V39.6922H208.189V53.5292H225.769V59.5707H200.766V14.3569H225.769V20.3984ZM265.411 59.5707L262.155 50.346H243.207L239.951 59.5707H232.203L248.416 14.3569H257.011L273.225 59.5707H265.411ZM245.291 44.3046H260.071L252.714 23.3217L245.291 44.3046Z" fill="white"/>
</g>
</g>
<path d="M132.334 89.8364L131.313 87.0182H125.771L124.75 89.8364H123L127.594 77.2364H129.508L134.084 89.8364H132.334ZM126.245 85.6727H130.839L128.542 79.2727L126.245 85.6727ZM135.47 84.8364C135.47 83.8061 135.677 82.9055 136.09 82.1345C136.503 81.3661 137.077 80.7697 137.811 80.3455C138.547 79.9212 139.39 79.7091 140.338 79.7091C141.565 79.7091 142.576 80.0061 143.371 80.6C144.169 81.1939 144.695 82.0182 144.95 83.0727H143.163C142.993 82.4667 142.661 81.9879 142.168 81.6364C141.677 81.2848 141.067 81.1091 140.338 81.1091C139.39 81.1091 138.624 81.4327 138.041 82.08C137.457 82.7297 137.165 83.6485 137.165 84.8364C137.165 86.0364 137.457 86.9636 138.041 87.6182C138.624 88.2727 139.39 88.6 140.338 88.6C141.067 88.6 141.675 88.4303 142.161 88.0909C142.647 87.7515 142.981 87.2667 143.163 86.6364H144.95C144.683 87.6545 144.148 88.4691 143.346 89.08C142.544 89.6933 141.541 90 140.338 90C139.39 90 138.547 89.7879 137.811 89.3636C137.077 88.9394 136.503 88.3394 136.09 87.5636C135.677 86.7879 135.47 85.8788 135.47 84.8364ZM151.787 81.2364H149.18V87.1091C149.18 87.5939 149.283 87.937 149.49 88.1382C149.696 88.337 150.055 88.4364 150.565 88.4364H151.787V89.8364H150.292C149.368 89.8364 148.675 89.6242 148.213 89.2C147.752 88.7758 147.521 88.0788 147.521 87.1091V81.2364H146.226V79.8727H147.521V77.3636H149.18V79.8727H151.787V81.2364ZM154.645 78.2545C154.329 78.2545 154.062 78.1455 153.843 77.9273C153.624 77.7091 153.515 77.4424 153.515 77.1273C153.515 76.8121 153.624 76.5455 153.843 76.3273C154.062 76.1091 154.329 76 154.645 76C154.949 76 155.208 76.1091 155.422 76.3273C155.633 76.5455 155.739 76.8121 155.739 77.1273C155.739 77.4424 155.633 77.7091 155.422 77.9273C155.208 78.1455 154.949 78.2545 154.645 78.2545ZM153.788 79.8727H155.447V89.8364H153.788V79.8727ZM162.63 90C161.695 90 160.847 89.7879 160.089 89.3636C159.328 88.9394 158.733 88.3358 158.302 87.5527C157.87 86.7721 157.653 85.8667 157.653 84.8364C157.653 83.8182 157.876 82.9176 158.321 82.1345C158.763 81.3539 159.367 80.7539 160.133 80.3345C160.898 79.9176 161.755 79.7091 162.703 79.7091C163.651 79.7091 164.508 79.9176 165.274 80.3345C166.04 80.7539 166.645 81.3515 167.09 82.1273C167.532 82.903 167.753 83.8061 167.753 84.8364C167.753 85.8667 167.526 86.7721 167.071 87.5527C166.614 88.3358 165.997 88.9394 165.219 89.3636C164.441 89.7879 163.578 90 162.63 90ZM162.63 88.5455C163.226 88.5455 163.785 88.4061 164.308 88.1273C164.83 87.8485 165.253 87.4303 165.577 86.8727C165.897 86.3152 166.058 85.6364 166.058 84.8364C166.058 84.0364 165.9 83.3576 165.584 82.8C165.268 82.2424 164.855 81.8267 164.344 81.5527C163.834 81.2812 163.281 81.1455 162.685 81.1455C162.077 81.1455 161.522 81.2812 161.019 81.5527C160.513 81.8267 160.108 82.2424 159.805 82.8C159.501 83.3576 159.349 84.0364 159.349 84.8364C159.349 85.6485 159.498 86.3333 159.797 86.8909C160.094 87.4485 160.491 87.8642 160.99 88.1382C161.488 88.4097 162.035 88.5455 162.63 88.5455ZM174.809 79.6909C176.024 79.6909 177.009 80.057 177.762 80.7891C178.516 81.5236 178.892 82.5818 178.892 83.9636V89.8364H177.252V84.2C177.252 83.2061 177.002 82.4448 176.504 81.9164C176.006 81.3903 175.325 81.1273 174.462 81.1273C173.587 81.1273 172.891 81.4 172.373 81.9455C171.858 82.4909 171.6 83.2848 171.6 84.3273V89.8364H169.941V79.8727H171.6V81.2909C171.928 80.7818 172.374 80.3879 172.938 80.1091C173.505 79.8303 174.128 79.6909 174.809 79.6909ZM195.151 89.8364H193.164L190.137 84.6545H188.132V89.8364H186.473V77.1636H190.575C191.535 77.1636 192.347 77.3273 193.01 77.6545C193.672 77.9818 194.166 78.4242 194.494 78.9818C194.823 79.5394 194.987 80.1758 194.987 80.8909C194.987 81.7636 194.735 82.5333 194.232 83.2C193.726 83.8667 192.969 84.3091 191.96 84.5273L195.151 89.8364ZM188.132 78.5273V83.3273H190.575C191.474 83.3273 192.149 83.1055 192.598 82.6618C193.048 82.2206 193.273 81.6303 193.273 80.8909C193.273 80.1394 193.052 79.5576 192.609 79.1455C192.165 78.7333 191.486 78.5273 190.575 78.5273H188.132ZM204.394 78.5091H199.216V82.7455H203.847V84.1091H199.216V88.4727H204.394V89.8364H197.557V77.1455H204.394V78.5091ZM215.442 89.8364L214.421 87.0182H208.879L207.858 89.8364H206.108L210.702 77.2364H212.616L217.192 89.8364H215.442ZM209.353 85.6727H213.947L211.65 79.2727L209.353 85.6727ZM218.578 84.8364C218.578 83.8061 218.784 82.9055 219.197 82.1345C219.611 81.3661 220.184 80.7697 220.918 80.3455C221.655 79.9212 222.497 79.7091 223.445 79.7091C224.673 79.7091 225.684 80.0061 226.479 80.6C227.276 81.1939 227.802 82.0182 228.058 83.0727H226.271C226.101 82.4667 225.769 81.9879 225.276 81.6364C224.785 81.2848 224.174 81.1091 223.445 81.1091C222.497 81.1091 221.731 81.4327 221.148 82.08C220.565 82.7297 220.273 83.6485 220.273 84.8364C220.273 86.0364 220.565 86.9636 221.148 87.6182C221.731 88.2727 222.497 88.6 223.445 88.6C224.174 88.6 224.782 88.4303 225.268 88.0909C225.754 87.7515 226.089 87.2667 226.271 86.6364H228.058C227.79 87.6545 227.255 88.4691 226.453 89.08C225.651 89.6933 224.648 90 223.445 90C222.497 90 221.655 89.7879 220.918 89.3636C220.184 88.9394 219.611 88.3394 219.197 87.5636C218.784 86.7879 218.578 85.8788 218.578 84.8364ZM234.891 81.2364H232.284V87.1091C232.284 87.5939 232.387 87.937 232.593 88.1382C232.8 88.337 233.159 88.4364 233.669 88.4364H234.891V89.8364H233.396C232.472 89.8364 231.779 89.6242 231.317 89.2C230.855 88.7758 230.625 88.0788 230.625 87.1091V81.2364H229.33V79.8727H230.625V77.3636H232.284V79.8727H234.891V81.2364ZM237.753 78.2545C237.437 78.2545 237.169 78.1455 236.951 77.9273C236.732 77.7091 236.623 77.4424 236.623 77.1273C236.623 76.8121 236.732 76.5455 236.951 76.3273C237.169 76.1091 237.437 76 237.753 76C238.057 76 238.316 76.1091 238.529 76.3273C238.741 76.5455 238.847 76.8121 238.847 77.1273C238.847 77.4424 238.741 77.7091 238.529 77.9273C238.316 78.1455 238.057 78.2545 237.753 78.2545ZM236.896 79.8727H238.555V89.8364H236.896V79.8727ZM245.738 90C244.802 90 243.954 89.7879 243.193 89.3636C242.435 88.9394 241.839 88.3358 241.406 87.5527C240.976 86.7721 240.761 85.8667 240.761 84.8364C240.761 83.8182 240.982 82.9176 241.425 82.1345C241.869 81.3539 242.475 80.7539 243.24 80.3345C244.006 79.9176 244.863 79.7091 245.811 79.7091C246.759 79.7091 247.616 79.9176 248.381 80.3345C249.147 80.7539 249.751 81.3515 250.194 82.1273C250.638 82.903 250.861 83.8061 250.861 84.8364C250.861 85.8667 250.632 86.7721 250.175 87.5527C249.721 88.3358 249.105 88.9394 248.327 89.3636C247.549 89.7879 246.686 90 245.738 90ZM245.738 88.5455C246.334 88.5455 246.893 88.4061 247.415 88.1273C247.938 87.8485 248.36 87.4303 248.68 86.8727C249.004 86.3152 249.165 85.6364 249.165 84.8364C249.165 84.0364 249.007 83.3576 248.691 82.8C248.375 82.2424 247.962 81.8267 247.452 81.5527C246.941 81.2812 246.388 81.1455 245.793 81.1455C245.185 81.1455 244.628 81.2812 244.123 81.5527C243.62 81.8267 243.216 82.2424 242.912 82.8C242.608 83.3576 242.456 84.0364 242.456 84.8364C242.456 85.6485 242.605 86.3333 242.901 86.8909C243.2 87.4485 243.599 87.8642 244.097 88.1382C244.596 88.4097 245.142 88.5455 245.738 88.5455ZM257.916 79.6909C259.132 79.6909 260.116 80.057 260.87 80.7891C261.623 81.5236 262 82.5818 262 83.9636V89.8364H260.359V84.2C260.359 83.2061 260.11 82.4448 259.612 81.9164C259.113 81.3903 258.433 81.1273 257.57 81.1273C256.695 81.1273 255.998 81.4 255.481 81.9455C254.965 82.4909 254.708 83.2848 254.708 84.3273V89.8364H253.049V79.8727H254.708V81.2909C255.036 80.7818 255.482 80.3879 256.046 80.1091C256.612 79.8303 257.236 79.6909 257.916 79.6909Z" fill="white"/>
</g>
</g>
<g clip-path="url(#clip8_153_533)">
<g clip-path="url(#clip9_153_533)">
<path d="M89.1526 0C82.8766 0 77.8557 5.00913 77.8557 11.2706C77.8557 17.532 82.8766 22.5411 89.1526 22.5411C95.4286 22.5411 100.449 17.532 100.449 11.2706C100.449 5.00913 95.4286 0 89.1526 0ZM89.1526 20.0365C84.2573 20.0365 80.3661 16.1545 80.3661 11.2706C80.3661 6.38665 84.2573 2.50457 89.1526 2.50457C94.0479 2.50457 97.9391 6.38665 97.9391 11.2706C97.9391 16.1545 94.0479 20.0365 89.1526 20.0365Z" fill="white"/>
<path d="M89.1526 37.5685C85.8891 37.5685 83.0021 38.946 80.8682 41.2001L59.4041 17.9077C60.7849 16.0292 61.538 13.7751 61.538 11.2706C61.538 5.00913 56.5172 0 50.2411 0C43.9651 0 38.9442 5.00913 38.9442 11.2706C38.9442 17.532 43.9651 22.5411 50.2411 22.5411C53.1281 22.5411 55.6385 21.414 57.6468 19.7861L79.362 43.2038C78.4833 44.8318 77.8557 46.8354 77.8557 48.8391C77.8557 55.1005 82.8766 60.1096 89.1526 60.1096C95.4287 60.1096 100.45 55.1005 100.45 48.8391C100.45 42.5776 95.4287 37.5685 89.1526 37.5685ZM50.2411 20.0365C45.3458 20.0365 41.4546 16.1545 41.4546 11.2706C41.4546 6.38665 45.3458 2.50457 50.2411 2.50457C55.1364 2.50457 59.0276 6.38665 59.0276 11.2706C59.0276 16.1545 55.1364 20.0365 50.2411 20.0365ZM89.1526 57.605C84.2573 57.605 80.3661 53.723 80.3661 48.8391C80.3661 43.9552 84.2573 40.0731 89.1526 40.0731C94.0479 40.0731 97.9391 43.9552 97.9391 48.8391C97.9391 53.723 94.0479 57.605 89.1526 57.605Z" fill="white"/>
<path d="M50.2411 60.1096C56.5172 60.1096 61.538 55.1005 61.538 48.839C61.538 42.5776 56.5172 37.5685 50.2411 37.5685C43.9651 37.5685 38.9442 42.5776 38.9442 48.839C38.9442 55.1005 43.9651 60.1096 50.2411 60.1096ZM50.2411 40.073C55.1364 40.073 59.0276 43.9551 59.0276 48.839C59.0276 53.7229 55.1364 57.605 50.2411 57.605C45.3458 57.605 41.4546 53.7229 41.4546 48.839C41.4546 43.9551 45.3458 40.073 50.2411 40.073Z" fill="white"/>
<path d="M11.3296 97.6781C17.6057 97.6781 22.6265 92.6689 22.6265 86.4075C22.6265 80.1461 17.6057 75.137 11.3296 75.137C5.05355 75.137 0.0327148 80.1461 0.0327148 86.4075C0.0327148 92.6689 5.05355 97.6781 11.3296 97.6781ZM11.3296 77.6415C16.2249 77.6415 20.1161 81.5236 20.1161 86.4075C20.1161 91.2914 16.2249 95.1735 11.3296 95.1735C6.43428 95.1735 2.54313 91.2914 2.54313 86.4075C2.54313 81.5236 6.43428 77.6415 11.3296 77.6415Z" fill="white"/>
<path d="M89.1526 75.137C83.3787 75.137 78.6089 79.52 77.9812 85.1553H61.4125C60.7849 79.52 56.0151 75.137 50.2411 75.137C46.2244 75.137 42.7099 77.2659 40.7015 80.3966L18.1077 57.8555C20.8692 55.8519 22.6265 52.4707 22.6265 48.8391C22.6265 43.0786 18.2333 38.3199 12.5848 37.6937V22.4159C18.2333 21.7897 22.6265 17.0311 22.6265 11.2706C22.6265 5.00913 17.6057 0 11.3296 0C5.05355 0 0.0327148 5.00913 0.0327148 11.2706C0.0327148 17.0311 4.42595 21.7897 10.0744 22.4159V37.5685C4.42595 38.1947 0.0327148 42.9533 0.0327148 48.7138C0.0327148 54.9753 5.05355 59.9844 11.3296 59.9844C12.9614 59.9844 14.4676 59.6087 15.8484 59.1078L39.5718 82.7759C39.1953 83.903 38.9442 85.1553 38.9442 86.4076C38.9442 92.669 43.9651 97.6781 50.2411 97.6781C56.0151 97.6781 60.7849 93.2951 61.4125 87.6599H77.8557C78.4833 93.2951 83.2531 97.6781 89.0271 97.6781C95.3031 97.6781 100.324 92.669 100.324 86.4076C100.324 80.1462 95.4287 75.137 89.1526 75.137ZM2.54313 11.2706C2.54313 6.38665 6.43429 2.50457 11.3296 2.50457C16.2249 2.50457 20.1161 6.38665 20.1161 11.2706C20.1161 16.1545 16.2249 20.0365 11.3296 20.0365C6.43429 20.0365 2.54313 16.1545 2.54313 11.2706ZM2.54313 48.8391C2.54313 43.9552 6.43429 40.0731 11.3296 40.0731C16.2249 40.0731 20.1161 43.9552 20.1161 48.8391C20.1161 53.723 16.2249 57.605 11.3296 57.605C6.43429 57.605 2.54313 53.723 2.54313 48.8391ZM50.2411 95.1736C45.3458 95.1736 41.4546 91.2915 41.4546 86.4076C41.4546 81.5237 45.3458 77.6416 50.2411 77.6416C55.1364 77.6416 59.0276 81.5237 59.0276 86.4076C59.0276 91.2915 55.1364 95.1736 50.2411 95.1736ZM89.1526 95.1736C84.2573 95.1736 80.3661 91.2915 80.3661 86.4076C80.3661 81.5237 84.2573 77.6416 89.1526 77.6416C94.0479 77.6416 97.9391 81.5237 97.9391 86.4076C97.9391 91.2915 94.0479 95.1736 89.1526 95.1736Z" fill="white"/>
</g>
</g>
</g>
</g>
</g>
</g>
<defs>
<clipPath id="clip0_153_533">
<rect width="274" height="98" fill="white"/>
</clipPath>
<clipPath id="clip1_153_533">
<rect width="274" height="98" fill="white" transform="translate(-0.166077 -0.160889)"/>
</clipPath>
<clipPath id="clip2_153_533">
<rect width="273.602" height="97.6781" fill="white" transform="translate(0.0327148)"/>
</clipPath>
<clipPath id="clip3_153_533">
<rect width="273.602" height="97.6781" fill="white" transform="translate(0.0327148)"/>
</clipPath>
<clipPath id="clip4_153_533">
<rect width="162.487" height="83.6431" fill="white" transform="translate(111.148 14.3569)"/>
</clipPath>
<clipPath id="clip5_153_533">
<rect width="162.487" height="83.6431" fill="white" transform="translate(111.148 14.3569)"/>
</clipPath>
<clipPath id="clip6_153_533">
<rect width="161.678" height="45.2138" fill="white" transform="translate(111.553 14.3569)"/>
</clipPath>
<clipPath id="clip7_153_533">
<rect width="161.678" height="45.2138" fill="white" transform="translate(111.553 14.3569)"/>
</clipPath>
<clipPath id="clip8_153_533">
<rect width="100.417" height="97.6781" fill="white" transform="translate(0.0327148)"/>
</clipPath>
<clipPath id="clip9_153_533">
<rect width="100.417" height="97.6781" fill="white" transform="translate(0.0327148)"/>
</clipPath>
</defs>
</svg>
