<svg width="48" height="47" viewBox="0 0 48 47" fill="none" xmlns="http://www.w3.org/2000/svg">
<g clip-path="url(#clip0_212_627)">
<g clip-path="url(#clip1_212_627)">
<path d="M42.6 0C39.6 0 37.2 2.39805 37.2 5.39562C37.2 8.39318 39.6 10.7912 42.6 10.7912C45.5999 10.7912 47.9999 8.39318 47.9999 5.39562C47.9999 2.39805 45.5999 0 42.6 0ZM42.6 9.59221C40.26 9.59221 38.4 7.73372 38.4 5.39562C38.4 3.05752 40.26 1.19903 42.6 1.19903C44.9399 1.19903 46.7999 3.05752 46.7999 5.39562C46.7999 7.73372 44.9399 9.59221 42.6 9.59221Z" fill="white"/>
<path d="M42.6 17.9854C41.04 17.9854 39.66 18.6449 38.64 19.724L28.38 8.57303C29.04 7.67377 29.4 6.59464 29.4 5.39562C29.4 2.39805 27 0 24 0C21 0 18.6 2.39805 18.6 5.39562C18.6 8.39318 21 10.7912 24 10.7912C25.38 10.7912 26.58 10.2517 27.54 9.4723L37.92 20.6832C37.5 21.4626 37.2 22.4218 37.2 23.381C37.2 26.3786 39.6 28.7766 42.6 28.7766C45.6 28.7766 48 26.3786 48 23.381C48 20.3834 45.6 17.9854 42.6 17.9854ZM24 9.59221C21.66 9.59221 19.8 7.73372 19.8 5.39562C19.8 3.05752 21.66 1.19903 24 1.19903C26.34 1.19903 28.2 3.05752 28.2 5.39562C28.2 7.73372 26.34 9.59221 24 9.59221ZM42.6 27.5776C40.26 27.5776 38.4 25.7191 38.4 23.381C38.4 21.0429 40.26 19.1844 42.6 19.1844C44.94 19.1844 46.8 21.0429 46.8 23.381C46.8 25.7191 44.94 27.5776 42.6 27.5776Z" fill="white"/>
<path d="M24 28.7766C27 28.7766 29.4 26.3785 29.4 23.381C29.4 20.3834 27 17.9854 24 17.9854C21 17.9854 18.6 20.3834 18.6 23.381C18.6 26.3785 21 28.7766 24 28.7766ZM24 19.1844C26.34 19.1844 28.2 21.0429 28.2 23.381C28.2 25.7191 26.34 27.5776 24 27.5776C21.66 27.5776 19.8 25.7191 19.8 23.381C19.8 21.0429 21.66 19.1844 24 19.1844Z" fill="white"/>
<path d="M5.4 46.7621C8.4 46.7621 10.8 44.364 10.8 41.3664C10.8 38.3689 8.4 35.9708 5.4 35.9708C2.4 35.9708 0 38.3689 0 41.3664C0 44.364 2.4 46.7621 5.4 46.7621ZM5.4 37.1699C7.74 37.1699 9.6 39.0283 9.6 41.3664C9.6 43.7045 7.74 45.563 5.4 45.563C3.06 45.563 1.2 43.7045 1.2 41.3664C1.2 39.0283 3.06 37.1699 5.4 37.1699Z" fill="white"/>
<path d="M42.6 35.9708C39.84 35.9708 37.56 38.0691 37.26 40.7669H29.34C29.04 38.0691 26.76 35.9708 24 35.9708C22.08 35.9708 20.4 36.9899 19.44 38.4887L8.64 27.6975C9.96 26.7383 10.8 25.1196 10.8 23.381C10.8 20.6232 8.7 18.3451 6 18.0453V10.7313C8.7 10.4315 10.8 8.15338 10.8 5.39562C10.8 2.39805 8.4 0 5.4 0C2.4 0 0 2.39805 0 5.39562C0 8.15338 2.1 10.4315 4.8 10.7313V17.9854C2.1 18.2851 0 20.5633 0 23.3211C0 26.3186 2.4 28.7167 5.4 28.7167C6.18 28.7167 6.9 28.5368 7.56 28.297L18.9 39.6278C18.72 40.1674 18.6 40.7669 18.6 41.3664C18.6 44.364 21 46.762 24 46.762C26.76 46.762 29.04 44.6637 29.34 41.9659H37.2C37.5 44.6637 39.78 46.762 42.54 46.762C45.54 46.762 47.94 44.364 47.94 41.3664C47.94 38.3688 45.6 35.9708 42.6 35.9708ZM1.2 5.39562C1.2 3.05752 3.06 1.19903 5.4 1.19903C7.74 1.19903 9.6 3.05752 9.6 5.39562C9.6 7.73372 7.74 9.59221 5.4 9.59221C3.06 9.59221 1.2 7.73372 1.2 5.39562ZM1.2 23.381C1.2 21.0429 3.06 19.1844 5.4 19.1844C7.74 19.1844 9.6 21.0429 9.6 23.381C9.6 25.7191 7.74 27.5776 5.4 27.5776C3.06 27.5776 1.2 25.7191 1.2 23.381ZM24 45.563C21.66 45.563 19.8 43.7045 19.8 41.3664C19.8 39.0283 21.66 37.1698 24 37.1698C26.34 37.1698 28.2 39.0283 28.2 41.3664C28.2 43.7045 26.34 45.563 24 45.563ZM42.6 45.563C40.26 45.563 38.4 43.7045 38.4 41.3664C38.4 39.0283 40.26 37.1698 42.6 37.1698C44.94 37.1698 46.8 39.0283 46.8 41.3664C46.8 43.7045 44.94 45.563 42.6 45.563Z" fill="white"/>
</g>
</g>
<defs>
<clipPath id="clip0_212_627">
<rect width="48" height="46.762" fill="white"/>
</clipPath>
<clipPath id="clip1_212_627">
<rect width="48" height="46.762" fill="white"/>
</clipPath>
</defs>
</svg>
