<?xml version="1.0" standalone="no"?>
<!DOCTYPE svg PUBLIC "-//W3C//DTD SVG 20010904//EN"
 "http://www.w3.org/TR/2001/REC-SVG-20010904/DTD/svg10.dtd">
<svg version="1.0" xmlns="http://www.w3.org/2000/svg"
 width="500.000000pt" height="500.000000pt" viewBox="0 0 500.000000 500.000000"
 preserveAspectRatio="xMidYMid meet">

<g transform="translate(0.000000,500.000000) scale(0.100000,-0.100000)"
fill="#000000" stroke="none">
<path d="M595 4651 c-83 -23 -175 -81 -233 -146 -205 -231 -167 -583 82 -760
54 -38 193 -95 232 -95 12 0 14 -59 14 -353 l0 -353 -62 -14 c-96 -21 -175
-66 -248 -139 -104 -105 -150 -215 -150 -356 0 -137 52 -264 147 -360 68 -69
137 -108 238 -136 89 -24 188 -22 285 7 l53 16 544 -544 c516 -515 544 -545
539 -573 -14 -75 -17 -195 -7 -250 16 -89 70 -191 137 -257 174 -174 435 -202
641 -69 120 77 195 194 228 354 l5 27 382 -2 382 -3 14 -64 c46 -209 230 -371
448 -396 113 -12 261 30 355 102 197 150 258 413 150 640 -149 311 -563 381
-808 136 -71 -71 -124 -167 -143 -256 l-11 -57 -387 2 -387 3 -7 47 c-22 155
-161 317 -323 378 -74 27 -199 37 -278 21 -114 -24 -241 -107 -315 -205 l-22
-29 -522 522 -521 521 60 63 c100 104 143 210 143 352 -1 144 -41 249 -132
347 -79 86 -162 131 -301 162 l-27 6 2 351 3 351 88 29 c177 58 298 176 349
342 17 57 20 87 16 176 -4 99 -7 115 -41 185 -66 139 -190 244 -332 281 -77
20 -204 18 -280 -4z m325 -123 c82 -40 150 -109 192 -196 31 -63 33 -73 33
-172 -1 -96 -3 -111 -31 -170 -128 -273 -495 -321 -688 -91 -64 77 -89 150
-89 261 -1 89 1 100 35 170 41 86 105 154 184 194 69 36 124 46 219 40 63 -3
94 -11 145 -36z m-99 -1698 c124 -24 232 -108 290 -225 32 -66 34 -76 34 -175
-1 -97 -3 -110 -32 -172 -79 -170 -257 -262 -444 -230 -107 18 -188 68 -253
154 -122 161 -108 380 32 530 94 100 233 144 373 118z m1875 -1759 c157 -73
252 -226 241 -391 -19 -307 -330 -482 -606 -340 -69 35 -145 119 -176 198 -68
166 -30 341 98 459 122 112 296 141 443 74z m1791 0 c91 -43 159 -111 201
-201 32 -68 36 -83 36 -165 0 -70 -5 -104 -22 -151 -126 -333 -593 -356 -750
-36 -36 74 -37 81 -37 182 0 98 3 110 32 170 55 113 171 206 287 230 73 16
183 3 253 -29z"/>
<path d="M2383 4651 c-356 -102 -484 -560 -232 -835 174 -190 453 -222 669
-76 25 16 48 30 51 30 3 0 159 -165 345 -367 186 -201 410 -443 497 -537 97
-105 156 -177 153 -186 -2 -8 -14 -42 -27 -75 -27 -74 -37 -214 -19 -294 19
-90 74 -183 147 -251 159 -150 355 -184 561 -98 145 60 261 206 293 367 62
317 -179 611 -501 611 -129 0 -256 -49 -348 -134 l-34 -31 -65 70 c-52 55
-599 649 -876 952 l-48 52 41 85 c37 76 42 96 47 178 3 52 0 120 -6 153 -33
178 -181 337 -359 386 -84 24 -206 24 -289 0z m294 -108 c208 -86 311 -310
239 -516 -72 -203 -280 -316 -486 -263 -319 82 -415 472 -172 702 44 41 135
87 192 96 64 9 183 0 227 -19z m1815 -1745 c85 -39 158 -113 200 -206 58 -124
41 -289 -40 -402 -126 -174 -362 -220 -549 -108 -70 42 -117 96 -156 178 -29
60 -31 74 -32 170 0 99 2 109 33 173 56 114 166 202 285 227 75 16 185 2 259
-32z"/>
<path d="M4160 4647 c-170 -58 -303 -202 -340 -369 -8 -35 -11 -94 -8 -157 5
-94 8 -108 47 -185 55 -112 147 -200 259 -247 67 -29 90 -34 180 -37 87 -3
115 0 174 19 297 95 441 425 309 709 -36 80 -120 174 -193 218 -122 73 -299
93 -428 49z m241 -87 c124 -23 234 -113 291 -238 28 -59 32 -78 32 -157 1
-132 -36 -217 -131 -306 -60 -56 -90 -72 -170 -93 -199 -52 -393 42 -480 231
-24 51 -27 71 -27 163 -1 99 1 109 32 173 85 174 262 263 453 227z"/>
<path d="M2375 2916 c-301 -97 -442 -431 -303 -716 38 -79 141 -186 213 -223
215 -108 458 -68 617 101 262 280 137 738 -229 843 -94 26 -208 25 -298 -5z
m259 -91 c230 -60 361 -304 282 -528 -89 -252 -379 -354 -605 -213 -141 87
-221 283 -180 441 57 222 284 357 503 300z"/>
<path d="M613 1195 c-226 -61 -383 -264 -383 -495 0 -284 227 -513 510 -514
207 -1 379 111 471 308 57 122 52 311 -12 437 -37 73 -122 165 -193 208 -107
64 -273 88 -393 56z m206 -95 c123 -23 236 -111 293 -228 31 -63 33 -74 33
-172 0 -94 -3 -111 -28 -164 -72 -155 -213 -246 -378 -246 -261 1 -459 251
-395 499 57 222 257 353 475 311z"/>
</g>
</svg>
