<svg version="1.1" id="Layer_1" xmlns="http://www.w3.org/2000/svg" x="0px" y="0px" viewBox="0 0 512 512">
<g id="banners_red">
	<path style="fill:#E73625;" d="M256,256h256c0-23.1-3.1-45.5-8.8-66.8H256V256z"/>
	<path style="fill:#E73625;" d="M256,122.4h218.4c-15.7-25.6-35.7-48.2-59.1-66.8H256V122.4z"/>
	<path style="fill:#E73625;" d="M256,512c60.2,0,115.6-20.8,159.4-55.7H96.6C140.4,491.2,195.8,512,256,512z"/>
	<path style="fill:#E73625;" d="M37.6,389.6h436.9c12.6-20.5,22.3-43,28.8-66.8H8.8C15.2,346.6,25,369,37.6,389.6z"/>
</g>
<path id="blue" style="fill:#0052B4;" d="M252.3,0c-0.6,0-1.2,0-1.9,0c-0.5,0-1,0-1.6,0c-2.2,0.1-4.3,0.1-6.5,0.3c-1,0-1.9,0.1-2.8,0.2c0,0,0,0,0,0c-1.1,0.1-2.1,0.1-3.2,0.2c-0.7,0-1.4,0.1-2.1,0.2c-0.5,0-1.1,0.1-1.7,0.1c-2,0.2-4.1,0.4-6.1,0.6c-1.6,0.2-3.1,0.4-4.7,0.6c-0.2,0-0.5,0-0.7,0.1c-0.8,0.1-1.5,0.2-2.3,0.3c-1.7,0.2-3.3,0.5-4.9,0.8c-0.9,0.1-1.8,0.3-2.8,0.5c-0.5,0.1-0.9,0.2-1.4,0.2c-1.5,0.3-3,0.6-4.5,0.9c-0.7,0.2-1.5,0.3-2.2,0.5c-0.8,0.2-1.5,0.3-2.2,0.5c-1.1,0.2-2.1,0.5-3.1,0.7c-0.7,0.2-1.4,0.3-2.2,0.5c-0.6,0.2-1.3,0.3-1.9,0.5c-0.5,0.1-1.1,0.3-1.7,0.4c-1.5,0.4-2.9,0.8-4.4,1.2c-0.7,0.2-1.5,0.4-2.2,0.6c-0.7,0.2-1.5,0.4-2.2,0.6c-1.4,0.4-2.9,0.9-4.3,1.3c-1.4,0.5-2.9,0.9-4.3,1.4c-1.2,0.4-2.5,0.8-3.7,1.3c-0.4,0.1-0.8,0.3-1.2,0.4c-1.2,0.4-2.4,0.9-3.6,1.3c-1.4,0.5-2.7,1-4,1.5c0,0-0.1,0-0.1,0c-1.4,0.5-2.7,1.1-4.1,1.7c-0.1,0-0.1,0-0.2,0.1c-1.4,0.6-2.7,1.1-4,1.7c-1,0.5-2.1,0.9-3.1,1.4c-0.5,0.2-1.1,0.5-1.6,0.7c-1.1,0.5-2.1,1-3.2,1.5c-0.1,0-0.2,0.1-0.3,0.1c-1.3,0.6-2.6,1.3-3.9,1.9c-1.3,0.7-2.6,1.3-4,2c-1.2,0.6-2.5,1.3-3.7,2c-0.3,0.2-0.6,0.3-0.8,0.5c-0.9,0.5-1.9,1-2.8,1.5c-0.4,0.2-0.7,0.4-1.1,0.6c-0.9,0.5-1.7,1-2.6,1.5c-0.3,0.2-0.6,0.3-0.9,0.5c-1.2,0.7-2.4,1.4-3.6,2.2c-1.3,0.8-2.5,1.5-3.8,2.3h23.3l-21.7,15.8l8.3,25.5l-21.7-15.8L85.1,81.2l7.2-22c0,0,0,0-0.1,0.1c-1.2,1-2.3,1.9-3.5,2.9c-4.7,4.1-9.3,8.3-13.7,12.7c-1.9,1.9-3.8,3.9-5.7,5.9c-3.7,4-7.3,8-10.8,12.2c0,0,0,0,0,0c-1.7,2.1-3.4,4.2-5.1,6.4c-1.9,2.5-3.8,5-5.6,7.5c-0.9,1.3-1.8,2.5-2.7,3.8c-0.9,1.3-1.8,2.6-2.6,3.9h7.5l-13.8,10c-0.6,1-1.2,2-1.8,3c-0.5,1-1.1,1.9-1.6,2.9c-0.3,0.5-0.5,1-0.8,1.5c-0.7,1.2-1.3,2.4-2,3.6v0l6.6,20.3l-12.3-8.9l0,0c-0.4,0.8-0.8,1.6-1.1,2.4c-0.4,0.8-0.7,1.6-1.1,2.5c-0.3,0.8-0.7,1.5-1,2.3c-0.7,1.5-1.3,3.1-2,4.6c-0.3,0.8-0.6,1.6-1,2.3c-0.4,1-0.8,2.1-1.2,3.1c-0.3,0.8-0.6,1.7-1,2.5l7.3,22.4h26.8l-21.7,15.8l8.3,25.5L15,214.6l-13,9.4c-0.2,1.3-0.3,2.6-0.5,3.9c-0.1,1.3-0.3,2.6-0.4,4c-0.1,1.3-0.2,2.6-0.3,4c-0.1,1.3-0.2,2.7-0.3,4c-0.1,1.2-0.1,2.5-0.2,3.7c0,0.3,0,0.7,0,1c0,1.1-0.1,2.2-0.1,3.3c0,1.2-0.1,2.3-0.1,3.5c0,1.5,0,3,0,4.6h256V0C254.8,0,253.5,0,252.3,0z M128.5,230.4l-21.7-15.8l-21.7,15.8l8.3-25.5l-21.7-15.8h26.8l8.3-25.5l8.3,25.5h26.8l-21.7,15.8L128.5,230.4z M120.2,130.3l8.3,25.5l-21.7-15.8l-21.7,15.8l8.3-25.5l-21.7-15.8h26.8l8.3-25.5l8.3,25.5h26.8L120.2,130.3z M220.3,230.4l-21.7-15.8l-21.7,15.8l8.3-25.5l-21.7-15.8h26.8l8.3-25.5l8.3,25.5h26.8L212,204.9L220.3,230.4z M212,130.3l8.3,25.5l-21.7-15.8l-21.7,15.8l8.3-25.5l-21.7-15.8h26.8l8.3-25.5l8.3,25.5h26.8L212,130.3z M212,55.7l8.3,25.5l-21.7-15.8l-21.7,15.8l8.3-25.5L163.5,40h26.8l8.3-25.5l8.3,25.5h26.8L212,55.7z"/>
<g id="stars">
	<path style="fill:#FFFFFF;" d="M28.4,204.9l8.3,25.5L15,214.6l-13,9.4c2.5-19.9,7.2-39.1,14-57.3l7.3,22.4h26.8L28.4,204.9z"/>
	<path style="fill:#FFFFFF;" d="M36.7,155.8l-12.3-8.9c1.8-3.8,3.7-7.6,5.7-11.4L36.7,155.8z"/>
	<path style="fill:#FFFFFF;" d="M50.1,114.5l-13.8,10c2-3.4,4.1-6.7,6.3-10H50.1z"/>
	<path style="fill:#FFFFFF;" d="M120.2,55.7l8.3,25.5l-21.7-15.8L85.1,81.2l7.2-22c8.3-7,17.1-13.4,26.3-19.2h23.3L120.2,55.7z"/>
	<polygon style="fill:#FFFFFF;" points="212,55.7 220.3,81.2 198.6,65.5 176.9,81.2 185.2,55.7 163.5,40 190.3,40 198.6,14.5 206.9,40 233.7,40"/>
	<polygon style="fill:#FFFFFF;" points="212,130.3 220.3,155.8 198.6,140.1 176.9,155.8 185.2,130.3 163.5,114.5 190.3,114.5 198.6,89 206.9,114.5 233.7,114.5"/>
	<polygon style="fill:#FFFFFF;" points="212,204.9 220.3,230.4 198.6,214.6 176.9,230.4 185.2,204.9 163.5,189.1 190.3,189.1 198.6,163.6 206.9,189.1 233.7,189.1"/>
	<polygon style="fill:#FFFFFF;" points="120.2,204.9 128.5,230.4 106.8,214.6 85.1,230.4 93.4,204.9 71.7,189.1 98.5,189.1 106.8,163.6 115.1,189.1 141.9,189.1"/>
	<polygon style="fill:#FFFFFF;" points="120.2,130.3 128.5,155.8 106.8,140.1 85.1,155.8 93.4,130.3 71.7,114.5 98.5,114.5 106.8,89 115.1,114.5 141.9,114.5"/>
</g>
<g id="banners_white">
	<path style="fill:#FFFFFF;" d="M256,55.7h159.5C371.7,20.9,316.3,0,256,0V55.7z"/>
	<path style="fill:#FFFFFF;" d="M256,122.4v66.8h247.2c-6.4-23.8-16.2-46.3-28.8-66.8H256z"/>
	<path style="fill:#FFFFFF;" d="M0,256c0,23.1,3.1,45.5,8.8,66.8h494.4c5.7-21.3,8.8-43.7,8.8-66.8H0z"/>
	<path style="fill:#FFFFFF;" d="M474.4,389.6H37.6c15.7,25.6,35.7,48.2,59.1,66.8h318.7C438.7,437.7,458.8,415.1,474.4,389.6z"/>
</g>
</svg>
